<svg width="679" height="143" viewBox="0 0 679 143" fill="none" xmlns="http://www.w3.org/2000/svg">
<path d="M22.2127 51.1367V64.674H44.044V77.258H22.2127V91.9393H46.904V105H5.91067V38.076H46.904V51.1367H22.2127ZM89.9008 51.232C96.1293 51.232 101.087 53.2658 104.773 57.3333C108.523 61.3373 110.397 66.8667 110.397 73.9213V105H94.1908V76.114C94.1908 72.5549 93.2693 69.7902 91.4262 67.82C89.583 65.8498 87.1044 64.8647 83.9902 64.8647C80.8759 64.8647 78.3973 65.8498 76.5542 67.82C74.711 69.7902 73.7895 72.5549 73.7895 76.114V105H57.4875V51.804H73.7895V58.8587C75.4419 56.5071 77.6664 54.664 80.4628 53.3293C83.2593 51.9311 86.4053 51.232 89.9008 51.232ZM141.936 51.0413C145.686 51.0413 148.959 51.804 151.756 53.3293C154.616 54.8547 156.808 56.8567 158.334 59.3353V51.804H174.636V104.905C174.636 109.798 173.651 114.216 171.68 118.156C169.774 122.16 166.818 125.338 162.814 127.689C158.874 130.041 153.948 131.217 148.038 131.217C140.157 131.217 133.77 129.342 128.876 125.592C123.982 121.906 121.186 116.885 120.486 110.529H136.598C137.106 112.563 138.314 114.152 140.22 115.296C142.127 116.504 144.479 117.107 147.275 117.107C150.644 117.107 153.313 116.122 155.283 114.152C157.317 112.245 158.334 109.163 158.334 104.905V97.3733C156.745 99.852 154.552 101.886 151.756 103.475C148.959 105 145.686 105.763 141.936 105.763C137.551 105.763 133.579 104.65 130.02 102.426C126.461 100.138 123.632 96.9284 121.535 92.7973C119.501 88.6027 118.484 83.7724 118.484 78.3067C118.484 72.8409 119.501 68.0424 121.535 63.9113C123.632 59.7802 126.461 56.6024 130.02 54.378C133.579 52.1536 137.551 51.0413 141.936 51.0413ZM158.334 78.402C158.334 74.3344 157.19 71.1249 154.902 68.7733C152.677 66.4218 149.944 65.246 146.703 65.246C143.462 65.246 140.697 66.4218 138.409 68.7733C136.185 71.0613 135.072 74.2391 135.072 78.3067C135.072 82.3742 136.185 85.6156 138.409 88.0307C140.697 90.3822 143.462 91.558 146.703 91.558C149.944 91.558 152.677 90.3822 154.902 88.0307C157.19 85.6791 158.334 82.4696 158.334 78.402ZM202.732 34.4533V105H186.43V34.4533H202.732ZM222.744 46.2747C219.884 46.2747 217.533 45.4484 215.689 43.796C213.91 42.08 213.02 39.9827 213.02 37.504C213.02 34.9618 213.91 32.8644 215.689 31.212C217.533 29.496 219.884 28.638 222.744 28.638C225.541 28.638 227.829 29.496 229.608 31.212C231.451 32.8644 232.373 34.9618 232.373 37.504C232.373 39.9827 231.451 42.08 229.608 43.796C227.829 45.4484 225.541 46.2747 222.744 46.2747ZM230.847 51.804V105H214.545V51.804H230.847ZM264.302 105.763C259.662 105.763 255.531 104.968 251.909 103.379C248.286 101.79 245.426 99.6296 243.329 96.8967C241.231 94.1002 240.056 90.986 239.801 87.554H255.913C256.103 89.3971 256.961 90.8907 258.487 92.0347C260.012 93.1787 261.887 93.7507 264.111 93.7507C266.145 93.7507 267.702 93.3693 268.783 92.6067C269.927 91.7804 270.499 90.7318 270.499 89.4607C270.499 87.9353 269.704 86.8231 268.115 86.124C266.526 85.3613 263.952 84.5351 260.393 83.6453C256.58 82.7556 253.402 81.834 250.86 80.8807C248.318 79.8638 246.125 78.3067 244.282 76.2093C242.439 74.0484 241.517 71.1567 241.517 67.534C241.517 64.4833 242.344 61.7187 243.996 59.24C245.712 56.6978 248.191 54.6958 251.432 53.234C254.737 51.7722 258.646 51.0413 263.158 51.0413C269.831 51.0413 275.075 52.6938 278.888 55.9987C282.765 59.3036 284.989 63.6889 285.561 69.1547H270.499C270.244 67.3116 269.418 65.8498 268.02 64.7693C266.685 63.6889 264.906 63.1487 262.681 63.1487C260.775 63.1487 259.313 63.53 258.296 64.2927C257.279 64.9918 256.771 65.9769 256.771 67.248C256.771 68.7733 257.565 69.9173 259.154 70.68C260.806 71.4427 263.349 72.2053 266.781 72.968C270.721 73.9849 273.931 75.0018 276.409 76.0187C278.888 76.972 281.049 78.5609 282.892 80.7853C284.799 82.9462 285.784 85.8698 285.847 89.556C285.847 92.6702 284.958 95.4667 283.178 97.9453C281.462 100.36 278.952 102.267 275.647 103.665C272.405 105.064 268.624 105.763 264.302 105.763ZM328.52 51.232C334.621 51.232 339.515 53.2658 343.201 57.3333C346.888 61.3373 348.731 66.8667 348.731 73.9213V105H332.524V76.114C332.524 72.5549 331.603 69.7902 329.759 67.82C327.916 65.8498 325.438 64.8647 322.323 64.8647C319.209 64.8647 316.731 65.8498 314.887 67.82C313.044 69.7902 312.123 72.5549 312.123 76.114V105H295.821V34.4533H312.123V58.954C313.775 56.6024 316.031 54.7276 318.891 53.3293C321.751 51.9311 324.961 51.232 328.52 51.232Z" fill="#4B6BFB"/>
<path d="M421.373 38.076V105H405.071V77.4487H379.713V105H363.411V38.076H379.713V64.2927H405.071V38.076H421.373ZM483.287 77.544C483.287 79.0693 483.192 80.6582 483.001 82.3107H446.107C446.361 85.6156 447.41 88.1578 449.253 89.9373C451.16 91.6533 453.48 92.5113 456.212 92.5113C460.28 92.5113 463.108 90.7953 464.697 87.3633H482.048C481.158 90.8589 479.537 94.0049 477.186 96.8013C474.898 99.5978 472.006 101.79 468.51 103.379C465.015 104.968 461.106 105.763 456.784 105.763C451.573 105.763 446.933 104.65 442.866 102.426C438.798 100.202 435.62 97.0238 433.332 92.8927C431.044 88.7616 429.9 83.9313 429.9 78.402C429.9 72.8727 431.013 68.0424 433.237 63.9113C435.525 59.7802 438.703 56.6024 442.77 54.378C446.838 52.1536 451.509 51.0413 456.784 51.0413C461.932 51.0413 466.508 52.1218 470.512 54.2827C474.516 56.4436 477.631 59.526 479.855 63.53C482.143 67.534 483.287 72.2053 483.287 77.544ZM466.604 73.254C466.604 70.4576 465.65 68.2331 463.744 66.5807C461.837 64.9282 459.454 64.102 456.594 64.102C453.861 64.102 451.541 64.8964 449.634 66.4853C447.791 68.0742 446.647 70.3304 446.202 73.254H466.604ZM508.189 34.4533V105H491.887V34.4533H508.189ZM536.305 59.3353C537.894 56.8567 540.087 54.8547 542.883 53.3293C545.68 51.804 548.953 51.0413 552.702 51.0413C557.088 51.0413 561.06 52.1536 564.619 54.378C568.178 56.6024 570.975 59.7802 573.008 63.9113C575.106 68.0424 576.154 72.8409 576.154 78.3067C576.154 83.7724 575.106 88.6027 573.008 92.7973C570.975 96.9284 568.178 100.138 564.619 102.426C561.06 104.65 557.088 105.763 552.702 105.763C549.016 105.763 545.743 105 542.883 103.475C540.087 101.949 537.894 99.9791 536.305 97.564V130.359H520.003V51.804H536.305V59.3353ZM559.566 78.3067C559.566 74.2391 558.422 71.0613 556.134 68.7733C553.91 66.4218 551.145 65.246 547.84 65.246C544.599 65.246 541.834 66.4218 539.546 68.7733C537.322 71.1249 536.21 74.3344 536.21 78.402C536.21 82.4696 537.322 85.6791 539.546 88.0307C541.834 90.3822 544.599 91.558 547.84 91.558C551.082 91.558 553.846 90.3822 556.134 88.0307C558.422 85.6156 559.566 82.3742 559.566 78.3067ZM634.852 77.544C634.852 79.0693 634.757 80.6582 634.566 82.3107H597.672C597.926 85.6156 598.975 88.1578 600.818 89.9373C602.725 91.6533 605.045 92.5113 607.778 92.5113C611.845 92.5113 614.673 90.7953 616.262 87.3633H633.613C632.723 90.8589 631.102 94.0049 628.751 96.8013C626.463 99.5978 623.571 101.79 620.076 103.379C616.58 104.968 612.671 105.763 608.35 105.763C603.138 105.763 598.498 104.65 594.431 102.426C590.363 100.202 587.186 97.0238 584.898 92.8927C582.61 88.7616 581.466 83.9313 581.466 78.402C581.466 72.8727 582.578 68.0424 584.802 63.9113C587.09 59.7802 590.268 56.6024 594.336 54.378C598.403 52.1536 603.074 51.0413 608.35 51.0413C613.498 51.0413 618.074 52.1218 622.078 54.2827C626.082 56.4436 629.196 59.526 631.42 63.53C633.708 67.534 634.852 72.2053 634.852 77.544ZM618.169 73.254C618.169 70.4576 617.216 68.2331 615.309 66.5807C613.402 64.9282 611.019 64.102 608.159 64.102C605.426 64.102 603.106 64.8964 601.2 66.4853C599.356 68.0742 598.212 70.3304 597.768 73.254H618.169ZM659.754 60.67C661.661 57.7464 664.044 55.4584 666.904 53.806C669.764 52.09 672.942 51.232 676.438 51.232V68.4873H671.957C667.889 68.4873 664.839 69.3771 662.805 71.1567C660.771 72.8727 659.754 75.9233 659.754 80.3087V105H643.452V51.804H659.754V60.67Z" fill="#5C5C5C"/>
</svg>
